<svg width="566" height="566" viewBox="0 0 566 566" fill="none" xmlns="http://www.w3.org/2000/svg">
<rect width="566" height="566" rx="283" fill="white"/>
<path d="M549.271 46H16V520.9H549.271V46Z" stroke="black" stroke-width="4.39153"/>
<path d="M62.5553 272.276V47.3967H547.86V430.11L511.18 467.823H221.972L62.5553 272.276Z" fill="#73D2F0" stroke="black" stroke-width="4.39153"/>
<path d="M337.655 350.495C407.778 350.495 464.624 294.213 464.624 224.786C464.624 155.359 407.778 99.077 337.655 99.077C267.532 99.077 210.686 155.359 210.686 224.786C210.686 294.213 267.532 350.495 337.655 350.495Z" fill="#FFFAFA" stroke="black" stroke-width="4.39153"/>
<path d="M337.655 261.102C357.913 261.102 374.335 244.843 374.335 224.786C374.335 204.729 357.913 188.47 337.655 188.47C317.398 188.47 300.975 204.729 300.975 224.786C300.975 244.843 317.398 261.102 337.655 261.102Z" fill="#0D0D0D" stroke="black" stroke-width="4.39153"/>
</svg>
